<?xml version="1.0" encoding="UTF-8" standalone="no"?>
<svg
   version="1.1"
   id="Layer_1"
   x="0px"
   y="0px"
   width="1000"
   viewBox="0 0 1000 560"
   enable-background="new 0 0 957 562"
   xml:space="preserve"
   sodipodi:docname="DPSM LOGO without Background.svg"
   height="560"
   inkscape:version="1.1.2 (0a00cf5339, 2022-02-04)"
   xmlns:inkscape="http://www.inkscape.org/namespaces/inkscape"
   xmlns:sodipodi="http://sodipodi.sourceforge.net/DTD/sodipodi-0.dtd"
   xmlns="http://www.w3.org/2000/svg"
   xmlns:svg="http://www.w3.org/2000/svg"><defs
   id="defs21" /><sodipodi:namedview
   id="namedview19"
   pagecolor="#ffffff"
   bordercolor="#666666"
   borderopacity="1.0"
   inkscape:pageshadow="2"
   inkscape:pageopacity="0.0"
   inkscape:pagecheckerboard="0"
   showgrid="false"
   width="1000px"
   inkscape:zoom="0.63967972"
   inkscape:cx="416.61474"
   inkscape:cy="305.62169"
   inkscape:window-width="1610"
   inkscape:window-height="986"
   inkscape:window-x="70"
   inkscape:window-y="27"
   inkscape:window-maximized="1"
   inkscape:current-layer="layer1" />








<g
   inkscape:groupmode="layer"
   id="layer2"
   inkscape:label="Layer 2" /><g
   inkscape:groupmode="layer"
   id="layer1"
   inkscape:label="Layer 1"><path
     fill="#f10324"
     opacity="1"
     stroke="none"
     d="m 484.61456,263.51726 c -0.003,-5.65504 -0.003,-10.74094 -0.003,-15.82687 0.48926,-0.18219 0.97857,-0.36432 1.46782,-0.54652 4.48132,5.44618 9.04289,10.83304 13.42612,16.35169 7.58279,9.54692 15.17223,19.09325 22.5103,28.81437 2.59238,3.43422 5.49129,4.87477 9.94862,4.75923 10.88289,-0.28214 21.78653,0.11978 32.66439,-0.24113 2.83419,-0.094 6.24437,-1.31125 8.29733,-3.14858 10.88078,-9.73788 21.32672,-19.92624 32.11903,-29.75855 3.23303,-2.94538 3.61953,-5.19642 0.67214,-8.62077 -6.44404,-7.48689 -12.46785,-15.30905 -18.73267,-22.94129 -4.31618,-5.25839 -11.0995,-5.81226 -16.52788,-1.29036 -5.99201,4.99139 -11.90617,10.07306 -17.74746,15.22794 -2.53229,2.23477 -4.51083,2.51325 -6.85663,-0.30539 -2.84527,-3.41902 -5.91073,-6.69105 -9.11799,-9.79906 -2.68121,-2.59832 -2.01176,-4.33306 0.60559,-6.52156 7.92612,-6.62761 15.66089,-13.46792 23.51169,-20.18017 1.16997,-1.00032 2.52874,-2.454 3.859,-2.51571 9.66946,-0.44847 19.35568,-0.75501 29.03203,-0.66168 1.45559,0.014 3.11219,2.17388 4.29528,3.62898 12.94573,15.92278 25.73189,31.96721 38.77768,47.81283 2.59884,3.15652 2.13941,5.11995 -0.62939,7.71058 -18.19145,17.0207 -36.22883,34.19502 -54.48865,51.14663 -1.63874,1.52138 -4.49035,2.54423 -6.79325,2.56946 -18.61082,0.20431 -37.22694,0.22983 -55.83632,-0.031 -2.34714,-0.0329 -5.40346,-1.46893 -6.87413,-3.23115 -8.68531,-10.4068 -17.09898,-21.03084 -25.34099,-31.76965 -1.40378,-1.82904 -1.98202,-4.53471 -2.15959,-6.89026 -0.32942,-4.36959 -0.0818,-8.77965 -0.0784,-13.742 z"
     id="path4"
     style="stroke-width:1.16774" /><path
     fill="#f20324"
     opacity="1"
     stroke="none"
     d="m 620.97569,221.96338 c -6.49515,-8.21869 -12.52098,-16.28337 -19.09008,-23.91289 -1.73133,-2.01082 -5.10203,-3.68889 -7.78664,-3.78493 -11.46801,-0.41036 -22.96576,-0.33706 -34.4414,-0.0384 -2.48782,0.0647 -5.49579,1.20782 -7.29914,2.84403 -10.955,9.93957 -21.54187,20.25597 -32.4544,30.24031 -3.23383,2.95871 -3.63912,5.15026 -0.64444,8.60313 6.47264,7.46312 12.47815,15.30192 18.73404,22.94178 3.93295,4.8029 11.20291,5.62389 16.0381,1.63991 7.19182,-5.92569 14.21134,-12.04583 21.84864,-18.54666 5.13274,5.56369 9.9342,10.76834 15.23334,16.51232 -10.20162,8.71075 -19.88537,17.0866 -29.74938,25.26009 -1.173,0.97191 -3.32207,1.12402 -5.03222,1.16836 -7.32221,0.18972 -14.66365,0.46833 -21.96686,0.11447 -2.37554,-0.11517 -5.39732,-1.48458 -6.86408,-3.25257 -13.2286,-15.94523 -26.07944,-32.18184 -39.28661,-48.144 -2.77098,-3.34907 -2.30979,-5.26373 0.7007,-8.06488 17.80879,-16.57057 35.35622,-33.40346 53.24796,-49.88911 2.15306,-1.98388 5.83571,-3.34675 8.83847,-3.39742 18.0122,-0.30398 36.03407,-0.0374 54.05004,-0.21176 4.00792,-0.0387 6.57309,1.25727 8.92367,4.33393 7.51198,9.83272 15.38144,19.41116 22.91222,29.23097 1.44991,1.89067 2.74345,4.40748 2.81828,6.67499 0.30813,9.3489 0.13738,18.7131 0.0817,28.07131 -0.004,0.85003 -0.44595,1.69758 -1.05727,3.87336 -6.29536,-7.90112 -11.89194,-14.92536 -17.75465,-22.26628 z"
     id="path6"
     style="stroke-width:1.16774" /><path
     fill="#ded2d2"
     opacity="1"
     stroke="none"
     d="m 840.67193,261.21726 c -3.6e-4,17.77663 -0.004,34.97984 0.002,52.18301 10e-4,3.37214 0.0908,6.828 -4.8614,6.86026 -5.08889,0.0331 -5.48519,-3.43993 -5.48577,-7.1038 -0.006,-35.17039 -0.001,-70.3408 -7e-5,-105.51119 7e-5,-2.0237 0,-4.04737 0,-6.07108 -0.40501,-0.10184 -0.81,-0.20376 -1.21502,-0.30565 -0.90205,1.72852 -1.87606,3.42598 -2.69564,5.19016 -16.7128,35.97541 -33.35192,71.98299 -50.23285,107.88472 -1.12032,2.38262 -4.05341,3.97209 -6.14333,5.93049 -1.90377,-1.9115 -4.53339,-3.5056 -5.60269,-5.7818 -16.86874,-35.90738 -33.53353,-71.90382 -50.26092,-107.873 -0.84891,-1.82539 -1.84158,-3.58859 -4.15783,-5.21649 0,2.12867 0,4.25738 0,6.38605 0,34.78863 0.008,69.57729 -0.0229,104.36587 -10e-4,1.88829 0.24223,4.1226 -0.68513,5.56217 -0.84362,1.30944 -3.18432,2.48689 -4.76096,2.3736 -1.53883,-0.11057 -3.53599,-1.6511 -4.25313,-3.07097 -0.79819,-1.5801 -0.47344,-3.73277 -0.47417,-5.63622 -0.0181,-44.15482 -0.0145,-88.30966 -0.0107,-132.46447 1.3e-4,-1.3372 -0.35502,-2.85244 0.17199,-3.97027 0.80696,-1.71154 2.0005,-4.10833 3.468,-4.44678 1.62902,-0.37576 4.22997,0.78706 5.53274,2.09256 1.56035,1.56369 2.25282,3.96184 3.22219,6.0415 18.62549,39.95718 37.23561,79.92099 55.8539,119.88123 0.53888,1.15661 1.1323,2.28955 2.15203,4.34313 1.84949,-3.79661 3.37432,-6.81128 4.79912,-9.86931 17.88783,-38.39225 35.76121,-76.79073 53.63778,-115.18782 0.56626,-1.21615 0.79447,-2.86292 1.76096,-3.5634 2.13897,-1.55027 4.64797,-2.62531 7.00611,-3.89418 1.08462,2.00107 3.08939,3.99265 3.11176,6.0047 0.23134,20.83257 0.14318,41.66847 0.1436,62.5034 1.5e-4,7.26336 0,14.52672 0,22.36358 z"
     id="path8"
     style="stroke-width:1.16774" /><path
     fill="#ded1d2"
     opacity="1"
     stroke="none"
     d="m 246.41036,178.323 c 38.64839,21.60041 53.25702,63.38187 33.98029,99.9597 -13.2527,25.14709 -34.87841,40.14686 -64.855,41.64196 -14.61657,0.72901 -29.29565,0.27101 -43.94585,0.40812 -3.60125,0.0336 -6.52689,-0.79993 -6.37371,-4.90023 0.14452,-3.86824 2.90751,-4.95301 6.55111,-4.93739 13.26668,0.0569 26.53379,0.0224 39.80075,0.0211 30.88544,-0.004 58.68556,-21.78393 65.19159,-51.07592 6.67635,-30.05893 -8.63711,-60.19707 -36.73638,-72.97793 -10.08989,-4.58934 -20.60652,-6.42773 -31.59781,-6.4585 -11.88077,-0.0334 -23.76173,-0.0229 -35.64254,0.005 -3.86701,0.009 -7.60884,-0.57455 -7.51885,-5.21233 0.0831,-4.28658 3.68975,-4.8871 7.3085,-4.78671 17.7836,0.49345 35.61051,0.46402 53.32755,1.79267 6.83411,0.51248 13.41818,4.12756 20.51035,6.52106 z"
     id="path10"
     style="stroke-width:1.16774" /><path
     fill="#ded1d2"
     opacity="1"
     stroke="none"
     d="m 365.94254,179.16281 c -0.95575,-2.26913 -2.44668,-4.54644 -1.89254,-6.17716 0.46713,-1.37483 3.30798,-2.82042 5.10036,-2.82305 12.65323,-0.0186 25.39668,-0.50192 37.93885,0.75931 17.14128,1.72371 32.35646,16.70526 36.04702,33.68687 3.66485,16.86311 -4.77965,36.31394 -20.50619,44.66646 -6.19739,3.29152 -13.50813,5.55092 -20.53169,6.26302 -10.76986,1.09192 -21.73927,0.69111 -32.6009,0.31072 -2.12313,-0.0743 -5.57866,-2.70802 -5.9018,-4.56823 -0.62951,-3.62376 2.50463,-5.03599 6.20757,-5.01453 9.89395,0.0574 19.79298,0.1841 29.68189,-0.0439 16.00114,-0.36878 29.92542,-11.19426 33.15844,-25.46979 3.53843,-15.62405 -3.7049,-30.80329 -18.91461,-37.45473 -5.19506,-2.27187 -11.42439,-2.81275 -17.24623,-3.17694 -10.03618,-0.62784 -20.12326,-0.49797 -30.54017,-0.95812 z"
     id="path12"
     style="stroke-width:1.16774" /><path
     fill="#dacdce"
     opacity="1"
     stroke="none"
     d="m 354.34212,250.8949 c -3.6e-4,20.83196 0.004,41.09045 -0.006,61.34896 -0.002,3.62068 0.62112,7.89853 -4.97226,8.00396 -5.42424,0.10231 -5.45863,-3.94269 -5.45882,-7.71712 -0.002,-44.72158 4.3e-4,-89.44318 0.003,-134.16478 1.1e-4,-0.95539 -0.38029,-2.24391 0.11427,-2.80571 1.70167,-1.93305 3.7135,-3.61201 5.60716,-5.38779 1.56425,1.87104 4.37707,3.6806 4.47987,5.62359 0.48413,9.1501 0.22862,18.33677 0.23049,27.51039 0.003,15.67169 10e-4,31.34335 0.002,47.5885 z"
     id="path14"
     style="stroke-width:1.16774" /><path
     fill="#dccfd0"
     opacity="1"
     stroke="none"
     d="m 165.35042,252.04175 c 4.9e-4,-18.52384 -0.006,-36.47419 0.0125,-54.42457 0.002,-1.71114 -0.43505,-3.78856 0.39362,-5.0434 1.1148,-1.68798 3.27276,-3.7875 4.96342,-3.77161 1.67502,0.0156 3.52697,2.2787 4.89483,3.8793 0.60418,0.70697 0.25404,2.21177 0.25437,3.35436 0.01,32.84534 0.078,65.69112 -0.13922,98.53515 -0.0154,2.34308 -1.51801,5.79621 -3.41411,6.77256 -3.7954,1.95437 -6.90523,-1.06327 -6.93622,-6.33497 -0.0831,-14.13069 -0.029,-28.26219 -0.0293,-42.96682 z"
     id="path16"
     style="stroke-width:1.16774" /><text
     xml:space="preserve"
     style="font-style:normal;font-weight:normal;font-size:35.1278px;line-height:1.25;font-family:sans-serif;fill:#f10324;fill-opacity:1;stroke:none;stroke-width:0.878191"
     x="147.2608"
     y="365.00439"
     id="text3705"
     transform="scale(0.9952995,1.0047227)"><tspan
       sodipodi:role="line"
       id="tspan3703"
       x="147.2608"
       y="365.00439"
       style="stroke-width:0.878191">DATA PIPELINE AND STORAGE MANAGER</tspan><tspan
       sodipodi:role="line"
       x="147.2608"
       y="408.91415"
       id="tspan3707"
       style="stroke-width:0.878191" /></text></g></svg>
